<svg xmlns="http://www.w3.org/2000/svg" width="360" height="356" fill="none" viewBox="0 0 360 356">
  <path fill="#FFAA64" d="M37.922 81.723h119.974V76.46H37.922v5.263zM151.171 81.723h-5.263v17.403h5.263V81.723z"/>
  <path fill="#FF8264" d="M151.171 81.723h-5.263v5.379h5.263v-5.379z"/>
  <path fill="#FFAA64" d="M49.91 81.723h-5.263v17.403h5.263V81.723z"/>
  <path fill="#FF8264" d="M49.91 81.723h-5.263v5.379h5.263v-5.379zM135.504 76.46V42.93h-8.446v33.53h8.446z"/>
  <path fill="#FFAA64" d="M135.504 44.83v-3.686h-8.446v3.686h8.446zM135.504 50.914v-1.368h-8.446v1.368h8.446zM135.504 72.068v-3.686h-9.497v3.686h9.497z"/>
  <path fill="#FFAA64" d="M127.058 76.467V37.35h-5.904v39.117h5.904z"/>
  <path fill="#FFF5A5" d="M125.906 56.062v-15.04h-3.542v15.04h3.542z"/>
  <path fill="#FF8264" d="M83.317 76.477l27.82-27.5-4.151-4.199-27.82 27.5 4.151 4.2z"/>
  <path fill="#FFAA64" d="M89.016 69.171l10.696-10.574-2.49-2.52-10.697 10.575 2.49 2.52z"/>
  <path fill="#FF6464" d="M121.162 76.467V46.76h-10.023v29.707h10.023z"/>
  <path fill="#FF8264" d="M121.162 73.32V70.55h-10.023v2.772h10.023zM121.162 68.734v-1.072h-10.023v1.072h10.023z"/>
  <path fill="#FF6464" d="M142.423 76.474V48.553h-6.919v27.921h6.919z"/>
  <path fill="#FFAA64" d="M142.423 73.508v-2.6h-6.919v2.6h6.919zM142.423 56.905v-2.6h-6.919v2.6h6.919zM142.423 59.698V58.69h-6.919v1.008h6.919zM301.37 219.855H174.456V38.07H301.37v181.785zm-123.213-3.708h119.52V41.777h-119.52v174.37z"/>
  <path fill="#FFAA64" d="M238.32 42.742h-3.701v175.256h3.701V42.742z"/>
  <path fill="#FFAA64" d="M304.726 45.558H171.094v5.155h133.632v-5.155zM304.726 51.36H171.094v5.156h133.632v-5.155zM304.726 57.164H171.094v5.155h133.632v-5.155zM304.726 62.967H171.094v5.155h133.632v-5.155zM304.726 68.77H171.094v5.156h133.632V68.77zM304.726 74.574H171.094v5.155h133.632v-5.155zM304.726 80.377H171.094v5.155h133.632v-5.155zM304.726 86.18H171.094v5.155h133.632V86.18zM304.726 91.983H171.094v5.155h133.632v-5.155z"/>
  <path fill="#263238" d="M293.731 44.514h-.929v100.368h.929V44.514z"/>
  <path fill="#263238" d="M294.912 149.194h-3.29l.828-4.723h1.634l.828 4.723zM297.065 44.514h-.929v153.468h.929V44.514z"/>
  <path fill="#263238" d="M298.246 201.452h-3.291l.828-4.723h1.635l.828 4.723z"/>
  <path fill="#FF8264" d="M310.478 37.35h-145.13v10.792h145.13V37.35zM52.265 205.779H33.199v8.057h19.066v-8.057zM41.63 215.938H22.565v8.057H41.63v-8.057zM125.582 145.278h-19.065v8.056h19.065v-8.056zM114.948 155.437H95.882v8.057h19.066v-8.057zM104.357 145.278H85.291v8.056h19.066v-8.056zM337.435 215.938H318.37v8.057h19.065v-8.057zM326.801 58.647h-19.066v8.057h19.066v-8.057zM337.435 68.806H318.37v8.057h19.065v-8.057zM52.265 58.647H33.199v8.057h19.066v-8.057z"/>
  <g>
    <path fill="#FF8264" d="M180 320.814c77.62 0 140.544-11.299 140.544-25.236 0-13.938-62.924-25.236-140.544-25.236S39.456 281.64 39.456 295.578c0 13.937 62.924 25.236 140.544 25.236z"/>
    <path fill="#FF8264" d="M75.24 280.623c16.677 0 30.197-2.669 30.197-5.961 0-3.293-13.52-5.962-30.197-5.962s-30.197 2.669-30.197 5.962c0 3.292 13.52 5.961 30.197 5.961z"/>
  </g>
  <g>
    <path fill="#263238" d="M280.634 182.984c11.081 10.843 12.96 27.626 10.606 42.329-.065.331-.576.237-.576-.072 0-3.348.101-6.66.086-9.972-.057-.151-.108-.288-.172-.439-2.88-2.103-5.552-4.479-7.2-7.74-1.851-3.636-2.578-7.74-3.996-11.52-.13-.368.259-.26.511-.072 6.739 4.975 8.885 10.324 10.8 17.467a59.551 59.551 0 00-1.174-11.124c-1.44-6.79-4.32-13.507-9.209-18.547a.251.251 0 01-.047-.074.226.226 0 01.214-.305c.06.001.116.026.157.069z"/>
    <path fill="#FFC727" d="M278.546 184.244c-1.9.065-3.096 3.11-4.586 4.003a1.433 1.433 0 01-1.124.299 1.45 1.45 0 01-.978-.63c-1.44-2.052.547-4.586 2.448-6.005-1.361.555-2.484 1.541-3.946 1.815a1.38 1.38 0 01-1.786-1.066c-.648-2.801 2.88-4.046 5.278-4.104-1.166-.814-4.514-3.024-2.736-4.111 1.778-1.087 5.76 2.066 7.013 3.11 1.886 1.527 4.133 3.809 4.219 6.207.108 2.786-2.333 1.072-3.802.482z"/>
    <path fill="#000" d="M278.546 184.244c-1.9.065-3.096 3.11-4.586 4.003a1.433 1.433 0 01-1.124.299 1.45 1.45 0 01-.978-.63c-1.44-2.052.547-4.586 2.448-6.005-1.361.555-2.484 1.541-3.946 1.815a1.38 1.38 0 01-1.786-1.066c-.648-2.801 2.88-4.046 5.278-4.104-1.166-.814-4.514-3.024-2.736-4.111 1.778-1.087 5.76 2.066 7.013 3.11 1.886 1.527 4.133 3.809 4.219 6.207.108 2.786-2.333 1.072-3.802.482z" opacity=".1"/>
    <path fill="#FFC727" d="M279.101 184.719c-2.434-1.109-7.121.483-7.517-.439-.806-1.879 2.938-3.168 4.954-3.413-1.858-.504-5.422-1.31-5.314-3.103.137-2.16 5.465-.302 8.165 1.764 3.398 2.606 3.377 5.119 2.815 5.623-.77.691-2.7-.252-3.103-.432z"/>
    <path fill="#263238" d="M305.863 181.911c-11.484 10.419-13.975 27.115-12.204 41.89.051.338.569.266.576-.051.13-3.34.159-6.66.288-9.957.072-.151.123-.295.195-.439 2.966-1.995 5.716-4.27 7.48-7.46 1.988-3.564 2.88-7.639 4.436-11.383.144-.36-.252-.266-.512-.086-6.926 4.709-9.273 9.972-11.476 17.042a59.636 59.636 0 011.591-11.081c1.713-6.717 4.853-13.327 9.914-18.172a.21.21 0 00.007-.296.205.205 0 00-.146-.064.207.207 0 00-.149.057z"/>
    <path fill="#FFC727" d="M307.901 183.25c1.901.137 2.981 3.226 4.428 4.169a1.444 1.444 0 001.112.346 1.433 1.433 0 001.005-.591c1.548-2.001-.375-4.608-2.218-6.098 1.339.612 2.426 1.634 3.874 1.966a1.379 1.379 0 001.142-.085 1.367 1.367 0 00.686-.916c.72-2.772-2.714-4.147-5.119-4.32 1.195-.771 4.63-2.88 2.88-4.003-1.749-1.124-5.81 1.85-7.135 2.836-1.937 1.44-4.27 3.658-4.45 6.041-.201 2.808 2.304 1.188 3.795.655z"/>
    <path fill="#000" d="M307.901 183.25c1.901.137 2.981 3.226 4.428 4.169a1.444 1.444 0 001.112.346 1.433 1.433 0 001.005-.591c1.548-2.001-.375-4.608-2.218-6.098 1.339.612 2.426 1.634 3.874 1.966a1.379 1.379 0 001.142-.085 1.367 1.367 0 00.686-.916c.72-2.772-2.714-4.147-5.119-4.32 1.195-.771 4.63-2.88 2.88-4.003-1.749-1.124-5.81 1.85-7.135 2.836-1.937 1.44-4.27 3.658-4.45 6.041-.201 2.808 2.304 1.188 3.795.655z" opacity=".1"/>
    <path fill="#FFC727" d="M307.332 183.697c2.477-1.015 7.092.763 7.524-.144.878-1.851-2.808-3.276-4.817-3.6 1.879-.439 5.465-1.102 5.429-2.88-.05-2.16-5.45-.511-8.23 1.44-3.492 2.477-3.6 4.989-3.024 5.515.742.713 2.708-.158 3.118-.331z"/>
    <path fill="#263238" d="M294.12 209.422a113.57 113.57 0 01-3.564 16.474.409.409 0 01-.721.118.412.412 0 01-.078-.284c.72-5.076 2.124-10.08 2.88-15.12a76.302 76.302 0 00.885-15.537c-.482-8.568-2.808-17.633-8.402-24.358-.13-.158.137-.381.259-.237 11.175 13.032 9.396 29.008 9.36 30.434 1.584-5.393 3.211-11.578 9.195-17.064.259-.238.46-.13.417.274-1.065 10.008-3.852 15.228-9.648 20.577a80.438 80.438 0 01-.583 4.723z"/>
    <path fill="#FFC727" d="M285.026 172.213c-2.008-.893-4.78 1.663-6.768 1.843a1.645 1.645 0 01-1.801-.778 1.655 1.655 0 01-.215-.662c-.496-2.88 2.88-4.486 5.559-5.004-1.685-.101-3.348.353-5.04-.101a1.577 1.577 0 01-1.352-1.33 1.584 1.584 0 01.041-.671c.72-3.233 5.04-2.758 7.546-1.606-.806-1.44-3.168-5.407-.778-5.638 2.391-.23 4.911 5.04 5.717 6.754 1.188 2.534 2.369 6.034 1.253 8.561-1.267 2.988-2.93-.022-4.162-1.368z"/>
    <path fill="#000" d="M285.026 172.213c-2.008-.893-4.78 1.663-6.768 1.843a1.645 1.645 0 01-1.801-.778 1.655 1.655 0 01-.215-.662c-.496-2.88 2.88-4.486 5.559-5.004-1.685-.101-3.348.353-5.04-.101a1.577 1.577 0 01-1.352-1.33 1.584 1.584 0 01.041-.671c.72-3.233 5.04-2.758 7.546-1.606-.806-1.44-3.168-5.407-.778-5.638 2.391-.23 4.911 5.04 5.717 6.754 1.188 2.534 2.369 6.034 1.253 8.561-1.267 2.988-2.93-.022-4.162-1.368z" opacity=".1"/>
    <path fill="#FFC727" d="M285.365 172.976c-1.973-2.376-7.632-3.074-7.582-4.234.108-2.354 4.637-1.807 6.862-1.051-1.678-1.44-4.968-4.082-3.953-5.889 1.238-2.204 5.825 2.433 7.582 5.94 2.217 4.413.928 7.012.093 7.25-1.152.331-2.678-1.62-3.002-2.016zM301.471 212.432l4.932 37.663h-29.995c.619-3.341 6.206-37.706 6.206-37.706l18.857.043z"/>
  </g>
  <g>
    <path fill="#263238" d="M34.157 249.987l36.46-.18 36.461-.057 72.922-.123 72.922.115 36.46.065 36.461.18-36.461.173-36.46.065-72.922.122-72.922-.122-36.46-.065-36.461-.173z"/>
  </g>
  <g>
    <path fill="#fff" d="M249.343 289.89l21.723-12.831 27.597 9.238-22.665 13.773-26.655-10.18z"/>
    <path fill="#DBDBDB" d="M275.141 296.499c1.332-.986 2.707-1.901 4.089-2.815 1.383-.914 2.794-1.778 4.198-2.642a86.743 86.743 0 014.32-2.506l2.16-1.202c.72-.382 1.44-.778 2.218-1.138-.67.497-1.354.958-2.031 1.44L288 289.04a140.937 140.937 0 01-4.198 2.65 119.428 119.428 0 01-4.284 2.505 96.387 96.387 0 01-4.377 2.304zM278.726 291.286a43.121 43.121 0 014.86-3.376 42.544 42.544 0 015.235-2.758 48.418 48.418 0 01-10.08 6.134h-.015zM268.596 294.411c1.332-.986 2.707-1.901 4.097-2.808a184.653 184.653 0 014.19-2.649 114.41 114.41 0 014.284-2.506l2.16-1.202c.72-.375 1.44-.778 2.211-1.138-.67.497-1.354.958-2.031 1.44l-2.066 1.375a141.253 141.253 0 01-4.198 2.643 110.526 110.526 0 01-4.284 2.505c-1.447.799-2.873 1.613-4.363 2.34zM267.761 291.92c2.268-1.714 4.658-3.24 7.07-4.723 2.412-1.483 4.875-2.88 7.445-4.104-2.268 1.713-4.658 3.24-7.07 4.723a89.875 89.875 0 01-7.445 4.104zM270.598 287.132a29.278 29.278 0 014.017-2.88 28.98 28.98 0 014.392-2.246 29.363 29.363 0 01-4.017 2.88c-1.4.869-2.869 1.62-4.392 2.246z"/>
    <path fill="#fff" d="M203.479 299.336l34.315-13.406 33.113 19.965-34.142 13.882-33.286-20.441z"/>
    <path fill="#DBDBDB" d="M236.282 315.68c2.232-1.066 4.5-2.059 6.768-3.046a415.943 415.943 0 016.84-2.88 237.69 237.69 0 016.905-2.721l3.478-1.303c1.166-.411 2.325-.843 3.506-1.232-1.116.54-2.246 1.037-3.369 1.563l-3.37 1.526c-2.261.987-4.55 1.93-6.84 2.88-2.29.951-4.586 1.851-6.905 2.722-2.318.871-4.665 1.728-7.013 2.491zM245.074 308.602c2.448-1.296 4.975-2.397 7.524-3.448 2.548-1.052 5.133-2.002 7.797-2.78-2.448 1.304-4.975 2.398-7.524 3.449-2.549 1.051-5.133 2.002-7.797 2.779zM232.898 310.021c1.952-.951 3.939-1.836 5.926-2.707 1.987-.872 3.989-1.7 5.998-2.528a186.99 186.99 0 016.055-2.376l3.053-1.13c1.029-.353 2.044-.72 3.081-1.058-.972.482-1.965.921-2.945 1.382l-2.98 1.325c-1.98.871-3.989 1.699-5.998 2.527a188.653 188.653 0 01-6.055 2.369c-2.031.756-4.068 1.519-6.135 2.196zM231.3 307.141c1.807-.9 3.643-1.721 5.479-2.527a253.419 253.419 0 015.551-2.348c1.858-.763 3.73-1.497 5.616-2.196l2.823-1.036c.957-.324 1.901-.67 2.88-.972-.9.453-1.815.864-2.722 1.296l-2.779 1.202c-1.836.814-3.686 1.577-5.544 2.347a114.68 114.68 0 01-5.616 2.16c-1.886.67-3.773 1.455-5.688 2.074zM222.754 307.083c2.232-1.073 4.5-2.066 6.768-3.053 2.268-.986 4.55-1.929 6.84-2.88 2.289-.95 4.593-1.843 6.904-2.714l3.478-1.303c1.166-.411 2.326-.85 3.499-1.239-1.109.54-2.246 1.044-3.369 1.563l-3.399 1.49c-2.268.994-4.55 1.93-6.84 2.88a223.968 223.968 0 01-6.905 2.715c-2.311.871-4.629 1.778-6.976 2.541zM222.48 303.663c1.98-.965 3.989-1.85 5.998-2.736 2.008-.885 4.039-1.721 6.069-2.556a206.893 206.893 0 016.127-2.405l3.089-1.144c1.037-.36 2.067-.72 3.118-1.073-.987.482-1.995.929-2.988 1.404l-3.01 1.332a266.56 266.56 0 01-6.069 2.556 185.962 185.962 0 01-6.128 2.397c-2.059.764-4.132 1.534-6.206 2.225zM216 302.77c2.239-1.072 4.5-2.066 6.768-3.052a377.664 377.664 0 016.847-2.88c2.29-.944 4.587-1.851 6.905-2.722l3.47-1.303c1.174-.411 2.326-.843 3.507-1.231-1.116.54-2.247 1.036-3.37 1.562l-3.398 1.49c-2.268.994-4.558 1.93-6.847 2.88a216.67 216.67 0 01-6.905 2.715c-2.319.871-4.644 1.771-6.977 2.541zM223.848 296.038c2.599-1.36 5.285-2.527 7.992-3.636 2.707-1.108 5.443-2.16 8.258-2.973-2.599 1.368-5.284 2.527-7.992 3.6-2.707 1.073-5.443 2.167-8.258 3.009z"/>
    <path fill="#FFC727" d="M130.594 280.63l98.496-25.934 45.828 24.559-96.351 32.105-47.973-30.73z"/>
    <path fill="#fff" d="M136.699 280.184l43.92 28.238 90.295-30.016-44.301-23.53s-27.022 3.557-28.282 3.946c-1.26.388-13.176 5.342-13.176 5.342s-16.718 2.88-17.849 3.283c-1.13.403-30.607 12.737-30.607 12.737z"/>
    <path fill="#DBDBDB" d="M185.162 264.164l5.364 3.47 5.328 3.528 10.613 7.121 10.548 7.222 5.242 3.65 5.22 3.694-5.364-3.478-5.335-3.521-10.613-7.12-10.541-7.229-5.242-3.643-5.22-3.694zM193.55 284.72a71.163 71.163 0 013.456-.994c1.16-.309 2.326-.583 3.492-.856a58.317 58.317 0 013.528-.72c1.181-.202 2.362-.432 3.557-.591-1.145.375-2.304.72-3.463.994-1.159.273-2.318.583-3.485.857-1.166.273-2.34.518-3.521.72-1.18.201-2.361.446-3.564.59zM173.405 296.492c2.973-1.44 5.976-2.779 8.978-4.126a786.651 786.651 0 019.051-3.974 142.629 142.629 0 014.572-1.901 7.704 7.704 0 011.209-.36l1.21-.281 2.412-.532a394.09 394.09 0 019.691-1.93c-3.19.828-6.394 1.591-9.598 2.362l-2.397.568c-.796.163-1.58.38-2.347.648-1.52.605-3.024 1.282-4.544 1.908l-9.1 3.852a590.278 590.278 0 01-9.137 3.766zM176.479 298.515c2.88-1.44 5.76-2.757 8.698-4.097 2.937-1.339 5.839-2.635 8.762-3.938 1.44-.655 2.938-1.282 4.421-1.894.374-.151.72-.309 1.138-.446.417-.137.792-.202 1.18-.302l2.348-.526a322.883 322.883 0 019.424-1.872c-3.096.814-6.213 1.555-9.324 2.318l-2.332.555c-.389.101-.785.187-1.145.309-.36.123-.72.281-1.095.432l-4.406 1.901c-2.945 1.26-5.861 2.578-8.813 3.823-2.952 1.246-5.889 2.513-8.856 3.737zM179.532 300.186a349.392 349.392 0 018.863-3.752c2.959-1.245 5.947-2.412 8.928-3.6 1.498-.59 2.967-1.188 4.529-1.699l4.63-1.303c3.096-.828 6.199-1.67 9.316-2.434-3.052 1.008-6.12 1.937-9.187 2.88l-4.622 1.354c-1.483.504-2.981 1.138-4.479 1.699-2.995 1.145-5.968 2.347-8.971 3.478-3.002 1.13-5.99 2.311-9.007 3.377zM223.769 285.562a140.515 140.515 0 018.309-3.715c.72-.288 1.404-.583 2.116-.842.36-.13.72-.267 1.102-.375l1.102-.295 4.399-1.166c2.923-.792 5.868-1.527 8.805-2.29a612.138 612.138 0 018.828-2.217 776.67 776.67 0 01-8.748 2.52c-2.924.82-5.84 1.656-8.763 2.44l-4.392 1.203-1.087.295c-.338.101-.72.238-1.051.374l-2.117.814c-2.822 1.123-5.645 2.232-8.503 3.254zM220.795 283.237a159.359 159.359 0 018.215-3.183c1.39-.489 2.758-1.008 4.205-1.389l4.248-1.159c2.823-.785 5.667-1.52 8.503-2.276a573.266 573.266 0 018.532-2.196 708.59 708.59 0 01-8.445 2.506c-2.823.814-5.638 1.642-8.467 2.426l-4.241 1.196c-.72.18-1.383.432-2.081.662l-2.088.72c-2.772.936-5.566 1.85-8.381 2.693zM217.93 281.17a181.368 181.368 0 018.172-3.139c1.375-.482 2.736-.993 4.154-1.44l4.255-1.037c2.83-.72 5.667-1.346 8.511-2.016a583.58 583.58 0 018.532-1.929c-2.816.77-5.631 1.526-8.453 2.246-2.823.72-5.645 1.44-8.475 2.16-1.404.353-2.836.72-4.226 1.066l-4.14 1.375a175.89 175.89 0 01-8.33 2.714zM215.482 279.68c2.592-1.397 5.248-2.621 7.963-3.766.338-.144.677-.273 1.029-.396a7.555 7.555 0 011.095-.302l2.16-.468 4.32-.922c5.76-1.188 11.484-2.361 17.244-3.456-5.703 1.354-11.427 2.636-17.143 3.91l-4.32.95-2.16.483c-.699.182-1.38.423-2.038.72-2.7 1.022-5.393 2.196-8.15 3.247zM212.796 277.772c2.592-1.39 5.249-2.621 7.963-3.758a14.65 14.65 0 011.037-.396c.354-.13.717-.231 1.087-.303l2.16-.468 4.32-.921c5.76-1.196 11.484-2.362 17.244-3.456-5.702 1.353-11.426 2.635-17.143 3.909l-4.32.951-2.16.482c-.7.176-1.382.417-2.038.72-2.7 1.058-5.392 2.268-8.15 3.24zM210.11 275.907c2.592-1.389 5.249-2.621 7.964-3.758.338-.144.684-.281 1.036-.403a7.444 7.444 0 011.088-.296l2.16-.475 4.32-.914c5.76-1.195 11.52-2.362 17.28-3.456-5.703 1.346-11.427 2.628-17.144 3.909l-4.32.944-2.16.489c-.7.176-1.382.417-2.037.72-2.736 1.051-5.422 2.232-8.187 3.24zM207.425 274.042c2.592-1.396 5.249-2.62 7.963-3.765.338-.144.72-.274 1.037-.396a7.3 7.3 0 011.087-.303l2.16-.468 4.32-.914c5.76-1.195 11.484-2.369 17.244-3.456-5.702 1.346-11.419 2.628-17.143 3.91l-4.32.943-2.16.482c-.699.179-1.381.42-2.038.72-2.7 1.059-5.385 2.239-8.15 3.247zM203.962 272.538c2.592-1.39 5.248-2.614 7.963-3.759.338-.144.72-.273 1.037-.396a7.418 7.418 0 011.087-.302l2.16-.468 4.32-.922c5.76-1.195 11.484-2.361 17.244-3.456-5.703 1.354-11.419 2.635-17.143 3.91l-4.32.95-2.16.483c-.699.182-1.38.423-2.038.72-2.7 1.058-5.386 2.232-8.15 3.24zM200.599 271.04c2.585-1.39 5.249-2.614 7.956-3.758.339-.144.684-.274 1.037-.396a7.584 7.584 0 011.087-.303l2.16-.468 4.32-.921c5.76-1.196 11.477-2.362 17.237-3.456-5.702 1.353-11.419 2.635-17.143 3.909l-4.32.951-2.16.482c-.701.181-1.385.422-2.045.72-2.686 1.08-5.371 2.246-8.129 3.24zM197.914 269.19c2.577-1.39 5.234-2.614 7.92-3.759.338-.144.676-.273 1.029-.396a6.68 6.68 0 011.095-.295l2.16-.439 4.32-.843c5.76-1.087 11.52-2.16 17.28-3.132-5.724 1.239-11.456 2.412-17.187 3.6l-4.32.879-2.16.446c-.698.175-1.378.416-2.03.72-2.679 1.037-5.357 2.189-8.107 3.219zM195.228 267.325c2.578-1.39 5.227-2.614 7.92-3.751.338-.144.684-.281 1.03-.396a5.996 5.996 0 011.094-.296l2.16-.403 4.32-.756c5.76-.972 11.52-1.908 17.28-2.765-5.76 1.116-11.484 2.16-17.23 3.226l-4.32.785-2.16.41c-.695.162-1.372.391-2.023.684-2.649 1.08-5.299 2.254-8.071 3.262zM192.542 265.46c2.571-1.39 5.22-2.614 7.92-3.744a15.94 15.94 0 011.03-.403c.354-.133.721-.23 1.094-.288l2.16-.339 4.32-.612c2.88-.403 5.76-.763 8.676-1.137 2.916-.375 5.76-.72 8.684-1.037-5.76.922-11.52 1.771-17.28 2.635l-4.32.641-2.16.353a9.798 9.798 0 00-2.016.677c-2.693 1.08-5.364 2.246-8.108 3.254zM182.65 302.778a443.448 443.448 0 019.057-3.543c3.031-1.152 6.077-2.275 9.115-3.405a149.226 149.226 0 014.601-1.613l4.659-1.404c3.11-.907 6.228-1.815 9.36-2.65-3.06 1.073-6.149 2.074-9.238 3.075l-4.637 1.44c-1.512.504-3.038 1.094-4.565 1.627l-9.158 3.276c-3.053 1.101-6.084 2.174-9.194 3.197zM225.979 287.845a455.713 455.713 0 019.166-3.363 734.277 734.277 0 019.216-3.211 144.664 144.664 0 014.651-1.526l4.702-1.303c3.139-.843 6.278-1.692 9.439-2.463-3.089 1.008-6.207 1.944-9.324 2.88l-4.687 1.368c-1.527.475-3.075 1.037-4.616 1.534l-9.252 3.089a540.15 540.15 0 01-9.295 2.995z"/>
  </g>
  <g>
    <path fill="#fff" d="M136.642 293.086c2.397-.345 5.486-.345 5.659 1.03.173 1.375-.915 2.117-.576 2.801.338.684 2.289 1.944 3.204 2.88a6.692 6.692 0 011.598 2.88c0 .345.576.914 0 1.605-.576.692-.893 1.714-1.361 2.232-.468.519-.669 1.08 0 1.995.67.914.108 3.549-.921 4.464-1.03.914-4.003-1.26-4.918-1.03-.914.231-1.029.677-1.829 1.253-.799.576-2.75 1.951-4.802 1.951-2.052 0-3.089-1.836-4.32-2.635-1.231-.799-2.398-.914-3.542-1.368a6.572 6.572 0 01-2.636-1.944c-.223-.461-1.029-.576-.72-1.829.31-1.253.915-1.605.915-2.635v-2.376c0-1.166-.922-3.226-.123-4.14.8-.914 1.376-2.29 2.636-2.29 1.26 0 5.256.72 5.256.72.425-.461.808-.96 1.144-1.49a3.312 3.312 0 012.772-1.598 8.307 8.307 0 002.564-.476z"/>
    <path fill="#C7C7C7" d="M122.4 304.693a83.51 83.51 0 004.975 2.088c1.678.648 3.319 1.361 4.997 1.98a44.904 44.904 0 005.04 1.627c.341.086.692.128 1.044.122l1.015-.504a15.84 15.84 0 002.16-1.346 6.018 6.018 0 001.663-1.706c.095-.154.177-.316.245-.483l.072-.252.036-.115a2.006 2.006 0 00-.439-.763 24.523 24.523 0 00-3.917-3.42c-1.44-1.059-2.88-2.059-4.428-3.003-.72-.489-1.512-.964-2.289-1.44-.389-.22-.785-.429-1.188-.626a12.084 12.084 0 00-.605-.281c-.195-.05-.461-.216-.612 0 .137-.216.439-.086.641-.072.201.015.446.108.662.173.432.144.857.31 1.274.482.836.346 1.664.72 2.477 1.124a57.332 57.332 0 014.723 2.692c1.6.957 3.066 2.119 4.364 3.456.421.437.697.992.792 1.592.014.112.014.226 0 .338l-.058.216-.115.396a4.146 4.146 0 01-.346.72 7.454 7.454 0 01-2.03 2.16 18.213 18.213 0 01-2.419 1.44l-.62.302-.302.144-.173.08a1.799 1.799 0 01-.338.1 4.37 4.37 0 01-1.62-.165 34.555 34.555 0 01-5.141-1.951 69.11 69.11 0 01-9.54-5.105z"/>
    <path fill="#C7C7C7" d="M129.226 307.796a30.77 30.77 0 012.966-3.953c.54-.633 1.123-1.217 1.706-1.807.303-.295.62-.569.951-.842a5.629 5.629 0 011.202-.8c.075-.03.152-.057.231-.079.159-.025.322-.025.482 0 .238.046.457.164.626.339.172.176.329.366.468.568.262.351.502.716.72 1.095.396.72.785 1.44 1.109 2.232a20.193 20.193 0 011.563 4.701l-2.6-4.154c-.439-.684-.842-1.382-1.288-2.038-.216-.331-.432-.669-.656-.957a3.613 3.613 0 00-.309-.367l.115.05a.235.235 0 00.173 0h-.058a4.276 4.276 0 00-.835.547l-.907.72-1.836 1.577c-1.253 1.109-2.491 2.182-3.823 3.168z"/>
    <path fill="#fff" d="M92.297 304.477c-1.296.309-2.988.468-3.154-.274-.165-.741.389-1.209.166-1.562a15.765 15.765 0 00-1.901-1.404 3.644 3.644 0 01-1.022-1.483c0-.188-.36-.476-.08-.879.281-.403.396-.986.627-1.296a.712.712 0 00.203-.57.721.721 0 00-.304-.524c-.418-.468-.238-1.937.28-2.491.52-.555 2.254.489 2.744.316.49-.172.533-.432.936-.784a4.916 4.916 0 012.534-1.311c1.13-.108 1.786.843 2.513 1.217.65.261 1.326.452 2.016.569a3.599 3.599 0 011.541.929c.151.237.59.259.468.964-.122.706-.418.929-.367 1.491.05.561.057.662.122 1.303.065.641.67 1.721.281 2.261s-.64 1.325-1.325 1.389c-.684.065-2.88-.108-2.88-.108a5.563 5.563 0 00-.554.879 1.81 1.81 0 01-1.44 1.015 4.607 4.607 0 00-1.404.353z"/>
    <path fill="#C7C7C7" d="M87.322 297.133c.72-.72 1.44-1.404 2.16-2.103l.554-.504.274-.244a1.54 1.54 0 01.554-.274 8.595 8.595 0 011.606-.202 16.262 16.262 0 013.117.173 5.11 5.11 0 011.67.519c.364.237.622.606.72 1.029.088.309.129.63.123.951a10.072 10.072 0 01-.72 3.16c-.197.492-.42.973-.67 1.44-.132.25-.282.49-.446.72-.21.293-.5.518-.835.648a7.842 7.842 0 01-3.211.209 21.867 21.867 0 01-2.996-.525c1.008-.08 2.01-.094 2.996-.216a8.821 8.821 0 002.721-.533c.187-.101.137-.101.288-.303.151-.201.209-.381.303-.59.197-.43.366-.872.504-1.325a9.292 9.292 0 00.547-2.685c.02-.274.14-.531.338-.72a10.485 10.485 0 00-1.641-.375 19.543 19.543 0 00-2.88-.396 8.953 8.953 0 00-1.39 0c-.086 0-.173.043-.137 0l-.324.209-.64.41c-.843.497-1.685 1.052-2.585 1.527z"/>
    <path fill="#C7C7C7" d="M90.432 295.21c.058.965 0 1.887.094 2.729 0 .396.122.879.223.9.1.022 0 0-.036 0h.086c.174-.007.347-.027.519-.057.813-.137 1.692-.382 2.577-.569a19.48 19.48 0 012.758-.447 11.578 11.578 0 01-5.09 2.499 5.246 5.246 0 01-.85.043 2.13 2.13 0 01-.583-.137 1.343 1.343 0 01-.548-.482 2.541 2.541 0 01-.23-1.771 6.85 6.85 0 011.08-2.708z"/>
    <path fill="#fff" d="M79.567 285.483c-.67-2.03-.554-4.385-2.88-4.133-2.325.252-3.657-2.613-4.687-3.297-1.03-.684-4.687 0-5.486.684-.8.684-1.145 2.023-1.944 2.613a46.04 46.04 0 00-2.974 2.42c-1.03.914-2.513 2.16-2.06 4.456.454 2.297 1.491 3.075 2.16 4.227.67 1.152-.46 3.211.454 5.839.915 2.628 5.379 3.658 6.524 3.204 1.144-.454 4.197-2.405 5.868-2.405 1.67 0 2.16 1.375 3.6.576s3.657-2.52 3.772-3.204c.116-.684-1.26-1.289-.799-2.361.461-1.073 2.29-3.082 2.06-4.421-.231-1.339-3.097-2.643-3.608-4.198z"/>
    <path fill="#C7C7C7" d="M75.326 281.12a64.371 64.371 0 00-8.25 3.29 4.903 4.903 0 00-.822.54c-.108 0-.172.526-.237.843-.123.72-.216 1.44-.288 2.16-.151 1.44-.267 2.945-.274 4.406-.017.71.021 1.42.115 2.124.018.197.069.389.152.569.255.12.527.203.806.245 1.43.209 2.877.279 4.32.209a20.81 20.81 0 002.16-.166c.62-.101 1.44-.31 2.16-.432 1.44-.295 2.923-.576 4.32-.936.334-.082.663-.18.986-.295a.528.528 0 00.166-.072s.08 0 0 0a.243.243 0 00-.108.144.72.72 0 00-.05.54.558.558 0 00.144.252c.025.03.054.056.086.079l-.194-.079c-.641-.209-1.376-.382-2.088-.547l-4.32-.972a179.31 179.31 0 01-4.37-1.008c-.72-.195-1.44-.382-2.197-.634a3.734 3.734 0 01-1.231-.641.779.779 0 01-.13-.158.869.869 0 01-.108-.274v-.273c.004-.144.034-.285.087-.418.068-.211.154-.416.259-.612a19.196 19.196 0 012.83-3.636c.273-.266.54-.54.828-.792.15-.13.295-.259.453-.382.08-.065.164-.126.252-.18a.985.985 0 01.375-.194 1.084 1.084 0 01.85.209c.173.116.336.246.489.389.28.267.545.55.792.849a57.022 57.022 0 014.86 7.546 70.582 70.582 0 00-5.415-7.056c-.252-.259-.504-.519-.763-.72a1.93 1.93 0 00-.59-.375l-.108.08c-.07.043-.135.094-.195.151a5.79 5.79 0 00-.381.36c-.26.252-.504.518-.72.785a18.438 18.438 0 00-2.491 3.506c-.067.136-.12.278-.159.425 0 .043-.043.137 0 .122a.401.401 0 00-.057-.151l-.036-.05c.25.126.513.227.784.302.67.216 1.39.396 2.103.569 1.44.338 2.88.641 4.32.936l5.587 1.073c.72.165.252.144 1.037.388l.324.123c.078.031.152.07.223.115a.82.82 0 01.202.166.768.768 0 01.18.309.835.835 0 01-.058.612 1.48 1.48 0 01-.31.331 1.084 1.084 0 01-.208.13c-.108.062-.221.112-.339.151a9.1 9.1 0 01-1.152.36c-1.49.36-2.959.619-4.42.893-.771.13-1.376.274-2.233.41-.765.087-1.534.135-2.304.144a23.093 23.093 0 01-4.593-.302 3.542 3.542 0 01-1.296-.475 1.442 1.442 0 01-.519-.778 2.784 2.784 0 01-.136-.662 14.894 14.894 0 010-2.333c.079-1.519.259-3.002.482-4.493.115-.72.238-1.483.403-2.225.137-.381.05-.72.504-1.231a4.28 4.28 0 011.051-.641 36.58 36.58 0 014.256-1.497c1.31-.425 2.743-.857 4.204-1.145z"/>
  </g>
  <g>
    <path fill="#AD6359" d="M191.398 160.808c23.4 23.71 52.826 73.591 47.34 83.707-6.106 11.261-38.686-21.981-38.564-23.918.101-1.44-11.361-31.774-20.059-53.806-8.697-22.032 5.501-11.851 11.283-5.983z"/>
    <path fill="#FFC727" d="M199.958 220.64c-.993-3.24-16.56-43.2-21.045-55.836-4.486-12.636-.324-16.56 12.405-4.968 12.73 11.592 40.637 50.227 47.002 70.74 6.134 19.771-4.039 19.771-17.467 10.656-10.995-7.459-20.895-20.592-20.895-20.592z"/>
    <path fill="#fff" d="M189.108 161.139a9.342 9.342 0 01-.792 2.556 9.485 9.485 0 01-1.44 2.268 9.274 9.274 0 01.792-2.556c.37-.82.855-1.584 1.44-2.268zM229.111 213.807a9.794 9.794 0 01-.792 2.563 9.275 9.275 0 01-1.44 2.268 10.28 10.28 0 012.218-4.831h.014zM215.316 192.819a10.29 10.29 0 01-2.218 4.824 9.29 9.29 0 01.8-2.556 9.461 9.461 0 011.418-2.268zM201.838 191.242a9.472 9.472 0 01-2.556-.799 9.245 9.245 0 01-2.268-1.44 10.304 10.304 0 014.824 2.218v.021zM214.754 212.468a9.844 9.844 0 01-2.563-.792 9.504 9.504 0 01-2.268-1.44 10.28 10.28 0 014.831 2.218v.014zM204.257 176.108a9.551 9.551 0 01-2.563-.792 9.305 9.305 0 01-2.268-1.44 9.288 9.288 0 012.556.799c.821.37 1.587.852 2.275 1.433zM193.378 200.415a10.364 10.364 0 011.843 4.983 10.364 10.364 0 01-1.843-4.983zM220.399 225.68a9.36 9.36 0 011.246 2.376c.324.835.525 1.713.597 2.606a10.357 10.357 0 01-1.843-4.982zM205.416 223.47a8.824 8.824 0 01-2.203 1.18l-.468-.561h.057a9.342 9.342 0 012.614-.619zM232.207 239.763a9.683 9.683 0 012.376-1.253 9.277 9.277 0 012.607-.597 9.204 9.204 0 01-2.369 1.245 9.514 9.514 0 01-2.614.605zM189.36 180.018a9.357 9.357 0 01-2.376 1.245c-.584.22-1.186.387-1.8.497l-.13-.353c.54-.313 1.106-.578 1.692-.792a9.281 9.281 0 012.614-.597z"/>
    <path fill="#FFC727" d="M197.165 249.987h-88.949s14.141-69.761 48.24-99.957c4.212-3.73 13.723-2.88 19.93.201 2.21 1.102 10.166 12.24 12.434 22.745 2.268 10.505 8.59 76.694 8.345 77.011z"/>
    <path fill="#263238" d="M189.605 177.325c.72 2.347 1.274 4.788 1.749 7.2v-.288c0-1.368.044-2.772.195-4.14 0-.072.122-.094.129 0 .179 1.384.218 2.783.116 4.176 0 .655-.08 1.317-.13 1.973.187 1.094.353 2.196.49 3.283.259 2.081.957 9.806 1.015 11.34 0 .324-.353.381-.447.043-.417-1.555-1.526-9.518-1.879-11.57a110.642 110.642 0 01-1.404-12.024c.007-.072.144-.072.166.007z"/>
    <path fill="#fff" d="M162.043 168.238a10.287 10.287 0 01-2.217 4.832c.14-.887.409-1.748.799-2.556a9.54 9.54 0 011.418-2.276zm-12.053 35.424a9.327 9.327 0 00-.792 2.564 9.31 9.31 0 001.44-2.276c.383-.81.65-1.671.792-2.556a9.343 9.343 0 00-1.44 2.268zm-28.893 12.658a9.504 9.504 0 00-.792 2.556 9.305 9.305 0 001.44-2.268 9.598 9.598 0 00.792-2.563 9.526 9.526 0 00-1.44 2.275zm21.24 22.709a9.274 9.274 0 00-.792 2.556 9.305 9.305 0 001.44-2.268c.38-.814.646-1.677.792-2.563a9.455 9.455 0 00-1.44 2.304v-.029zm37.08-43.884a9.504 9.504 0 00-.792 2.556 9.305 9.305 0 001.44-2.268 9.55 9.55 0 00.792-2.556 9.718 9.718 0 00-1.44 2.297v-.029zm11.685 24.098a9.33 9.33 0 00-.792 2.563 9.245 9.245 0 001.44-2.268 9.562 9.562 0 00.778-2.498 9.331 9.331 0 00-1.426 2.232v-.029zm-28.274 17.367a9.551 9.551 0 00-.792 2.563 9.305 9.305 0 001.44-2.268c.383-.813.65-1.676.792-2.563a9.527 9.527 0 00-1.44 2.296v-.028zm-27.094-46.93a9.387 9.387 0 00-.792 2.556 9.473 9.473 0 001.44-2.268 9.24 9.24 0 00.792-2.556 9.504 9.504 0 00-1.44 2.268zm33.624-7.92a9.274 9.274 0 00-2.556-.792 9.343 9.343 0 002.268 1.44c.812.38 1.672.646 2.556.792a9.305 9.305 0 00-2.268-1.44zm5.602 28.591a9.274 9.274 0 00-2.556-.792 9.275 9.275 0 002.268 1.44 9.833 9.833 0 002.556.792 9.305 9.305 0 00-2.268-1.44zm-52.301 30.327a9.342 9.342 0 00-2.556-.792 9.305 9.305 0 002.268 1.44c.812.38 1.672.646 2.556.792a9.264 9.264 0 00-2.261-1.44h-.007zm53.223 5.796a9.337 9.337 0 00-2.564-.792 9.672 9.672 0 002.268 1.44l.548.237 1.44.094a10.447 10.447 0 00-1.685-.979h-.007zm-33.228-28.966a9.363 9.363 0 00-2.556-.792 9.245 9.245 0 002.268 1.44c.81.385 1.67.655 2.556.799a9.309 9.309 0 00-2.261-1.447h-.007zm26.697-61.114a9.274 9.274 0 00-2.556-.792 9.245 9.245 0 002.268 1.44 9.52 9.52 0 002.556.8 9.274 9.274 0 00-2.261-1.448h-.007zm5.76 13.277a9.217 9.217 0 001.289 2.369 10.357 10.357 0 00-1.843-4.982c.06.893.249 1.774.561 2.613h-.007zm14.127 66.24a9.363 9.363 0 001.245 2.369 10.357 10.357 0 00-1.843-4.982c.078.883.282 1.751.605 2.577l-.007.036zm-38.16-49.565a9.204 9.204 0 001.245 2.369 9.297 9.297 0 00-.597-2.606 9.665 9.665 0 00-1.253-2.376c.085.884.294 1.751.619 2.577l-.014.036zm10.994 29.11a9.62 9.62 0 001.253 2.369 10.266 10.266 0 00-1.851-4.983c.076.895.278 1.775.598 2.614zm-50.969 34.164v.367h.231a2.127 2.127 0 00-.231-.367zm25.042-.115a9.665 9.665 0 00-1.253-2.376c.075.895.276 1.775.598 2.613l.093.245h.72c-.05-.158-.101-.324-.158-.482zm-5.105-20.542a9.329 9.329 0 001.246 2.376 9.276 9.276 0 00-.598-2.613 9.453 9.453 0 00-1.253-2.369c.079.893.282 1.77.605 2.606zm21.535-68.573a9.453 9.453 0 001.253 2.369 10.476 10.476 0 00-1.85-4.975c.073.892.272 1.77.59 2.606h.007zm23.825 67.212a9.204 9.204 0 002.369-1.245 9.312 9.312 0 00-2.607.597 9.474 9.474 0 00-2.368 1.246 9.264 9.264 0 002.606-.598zm-23.285 21.42a9.357 9.357 0 002.376-1.245 9.275 9.275 0 00-2.613.597 9.463 9.463 0 00-2.369 1.246 9.25 9.25 0 002.577-.598h.029zm-39.6-19.396c-.057.201-.122.41-.18.604.426-.2.831-.441 1.21-.72-.355.012-.709.05-1.059.116h.029zm20.304-24.668a9.257 9.257 0 002.369-1.252 10.537 10.537 0 00-4.982 1.85 9.524 9.524 0 002.584-.598h.029zm18.641 23.602a9.207 9.207 0 002.369-1.246 9.352 9.352 0 00-2.614.598 9.639 9.639 0 00-2.369 1.253 9.624 9.624 0 002.614-.605zm11.088-33.84a9.23 9.23 0 002.369-1.253 9.363 9.363 0 00-2.614.605 9.465 9.465 0 00-2.369 1.246 9.548 9.548 0 002.614-.598zm23.465-13.457a9.374 9.374 0 002.376-1.245c-1.793.171-3.51.806-4.983 1.843a9.313 9.313 0 002.607-.598zm-41.962-7.869a9.238 9.238 0 002.369-1.246 9.23 9.23 0 00-2.606.598 9.605 9.605 0 00-2.376 1.245 9.275 9.275 0 002.613-.597z"/>
    <path fill="#AD6359" d="M175.99 164.97c-5.35 1.051-14.22-7.46-17.59-14.17-.23-.468.648-5.213 1.44-11.03.475-3.528.914-7.474 1.051-11.103 0-.72 22.543 6.423 22.543 6.423s-2.534 7.516-2.743 13.838a8.348 8.348 0 00.094 1.498c.005.084.005.168 0 .252.396 2.808.403 13.269-4.795 14.292z"/>
    <path fill="#263238" d="M178.488 150.67c.779.066 1.561.066 2.34 0a1.986 1.986 0 000-.244 7.745 7.745 0 01-.094-1.498c.209-6.322 2.736-13.838 2.736-13.838s-18.266-5.818-21.909-6.43c.518 4.183 3.521 21.182 16.927 22.01z"/>
    <path fill="#AD6359" d="M155.318 106.369c-1.749 8.258 4.515 31.125 10.692 35.805 8.943 6.79 22.587 6.329 28.08-4.197 5.343-10.203-3.355-39.86-10.152-44.014-9.993-6.113-26.028.209-28.62 12.406z"/>
    <path fill="#263238" d="M178.776 119.545c0-.058-.101.101-.079.165.461 1.527.72 3.363-.519 4.248-.043 0 0 .101.036.08 1.635-.699 1.246-3.118.562-4.493z"/>
    <path fill="#263238" d="M176.969 118.299c-2.535.483-1.39 5.508.957 5.04 2.348-.468 1.167-5.436-.957-5.04zM188.287 117.162c0-.065.137.043.151.108.303 1.569.915 3.312 2.441 3.513.051 0 .058.087 0 .087-1.764.151-2.556-2.175-2.592-3.708z"/>
    <path fill="#263238" d="M189.302 115.218c2.463-.764 3.802 4.219 1.52 4.924-2.283.706-3.579-4.291-1.52-4.924zM174.715 117.817c.693-.14 1.378-.315 2.052-.526a3.487 3.487 0 001.987-.936c.138-.198.206-.436.194-.677a1.09 1.09 0 00-.258-.655 2.699 2.699 0 00-2.686-.511 3.964 3.964 0 00-2.434 1.512 1.165 1.165 0 00.492 1.7c.204.093.431.125.653.093zM190.67 112.244a20.754 20.754 0 01-2.116-.065 3.422 3.422 0 01-2.16-.475 1.084 1.084 0 01-.231-1.31 2.703 2.703 0 012.513-1.095 3.968 3.968 0 012.7.943 1.16 1.16 0 01-.706 2.002zM180.626 133.786c.461.281.944.72 1.52.62a4.282 4.282 0 001.584-.771.06.06 0 01.033-.009.06.06 0 01.032.012c.01.007.017.016.02.028a.056.056 0 01.001.034 2.166 2.166 0 01-1.786 1.289 1.69 1.69 0 01-1.533-1.095c-.043-.086.065-.144.129-.108zM181.202 128.754a5.475 5.475 0 004.076 1.555 6.848 6.848 0 001.929-.346c.121-.034.239-.078.353-.129.114-.034.225-.078.331-.13a.382.382 0 00.189-.168c.042-.076.056-.164.042-.25a.672.672 0 00-.051-.151v-.137c-.237-1.202-.77-3.002-.77-3.002.489.122 2.952.619 2.772 0-1.491-5.119-3.147-10.8-5.71-15.581a.142.142 0 00-.076-.082.143.143 0 00-.111-.004.144.144 0 00-.086.187c1.238 4.975 3.34 9.698 4.658 14.674a9.325 9.325 0 00-2.671-.188c-.159.087 1.087 3.449 1.152 4.004a.137.137 0 010 .057c-1.951.72-3.6.454-5.875-.453-.173-.094-.274.043-.152.144z"/>
    <path fill="#263238" d="M159.79 126.781s-8.367-12.384-8.014-19.8c.158-3.348 4.594-5.825 4.594-5.825a7.531 7.531 0 012.03-7.697c3.766-3.917 13.356-3.557 13.356-3.557s5.76-9.259 14.688-6.141c8.928 3.117 3.722 13.327 3.722 13.327s3.442 4.399-4.233 8.359c-7.474 3.852-23.271 1.217-23.271 1.217a54.67 54.67 0 01.562 16.2 4.967 4.967 0 01-3.434 3.917z"/>
    <path fill="#263238" d="M173.246 89.946a15.445 15.445 0 00-6.22-.821 16.557 16.557 0 00-5.508 1.145c-3.096 1.288-5.76 3.75-6.142 7.2a6.485 6.485 0 001.44 4.795c.043.05.122 0 .079-.087-2.16-2.404-1.281-6.357.72-8.56 2.247-2.499 5.825-3.6 9.072-3.881a27.634 27.634 0 016.48.36.095.095 0 00.089-.05.094.094 0 00-.01-.101zM192.888 87.678c-.85-2.42-3.031-3.888-5.429-4.53a12.795 12.795 0 00-8.28.72 16.105 16.105 0 00-6.53 5.365c0 .05.05.115.086.065 3.103-4.061 8.151-6.538 13.299-5.71 2.296.367 4.636 1.44 5.796 3.55a7.69 7.69 0 01.129 6.516c-1.058 2.484-3.161 4.428-5.349 5.925-.051 0 0 .115.05.087a14.762 14.762 0 005.371-5.076 8.368 8.368 0 00.857-6.912zM187.826 105.764a26.479 26.479 0 01-10.929 2.462 53.772 53.772 0 01-11.671-1.015c-2.24-.417-4.464-.929-6.682-1.476-.072 0-.094.087 0 .108a58.958 58.958 0 0012.046 3.075c3.823.521 7.712.291 11.448-.677a25.152 25.152 0 005.853-2.405c.029-.022-.021-.094-.065-.072z"/>
    <path fill="#EBEBEB" d="M179.316 128.703a6.384 6.384 0 01-7.252-6.104 6.388 6.388 0 016.809-6.595 6.391 6.391 0 015.483 3.951 6.395 6.395 0 01-5.04 8.748zm-1.649-11.808a5.551 5.551 0 101.512 11 5.551 5.551 0 00-1.512-11zM193.486 124.916c-2.427.338-4.968-1.836-5.811-5.04a7.647 7.647 0 01.18-4.666 3.978 3.978 0 012.808-2.721 3.965 3.965 0 013.78 1.001 7.601 7.601 0 012.434 3.974c.893 3.413-.447 6.725-2.981 7.387a2.712 2.712 0 01-.41.065zm-2.29-11.678a2.282 2.282 0 00-.317.064 3.386 3.386 0 00-2.239 2.218 6.764 6.764 0 00-.144 4.14c.77 2.952 3.089 4.91 5.177 4.363 2.088-.547 3.146-3.391 2.369-6.343a6.74 6.74 0 00-2.16-3.535 3.54 3.54 0 00-2.686-.907z"/>
    <path fill="#EBEBEB" d="M184.32 120.726l-.72-.497c.72-1.03 2.621-2.657 4.558-1.44l-.461.72c-1.699-1.109-3.305 1.123-3.377 1.217zM157.205 129.517l-.835-.187c.086-.389.907-3.816 2.671-4.601 1.764-.785 13.003-2.585 13.485-2.664l.137.842c-3.254.533-12.002 2.038-13.277 2.599-1.274.562-1.972 3.068-2.181 4.011z"/>
    <path fill="#AD6359" d="M163.354 125.492s-6.048-6.934-9.252-4.702c-3.204 2.232 1.908 12.687 6.062 13.745a4.097 4.097 0 003.198-.274 4.102 4.102 0 002.015-2.498l-2.023-6.271z"/>
    <path fill="#263238" d="M155.642 123.75c-.064 0-.064.093 0 .108 2.924.835 4.673 3.276 5.998 5.86-.943-.95-2.16-1.396-3.42-.252-.072.058 0 .166.086.137a2.515 2.515 0 012.844.576 12.332 12.332 0 011.563 2.088c.151.238.59.051.468-.223a.236.236 0 010-.065c-.353-3.578-3.665-8.28-7.539-8.229z"/>
    <path fill="#AD6359" d="M238.738 244.515c-5.264 7.531-19.599 8.964-55.354 15.97-4.946.972-21.175-32.105-15.948-33.408 6.588-1.649 32.508-6.61 34.452-6.732 16.373-1.037 40.421 19.058 36.85 24.17z"/>
    <path fill="#AD6359" d="M174.593 225.442s-15.12 2.29-22.738 5.955c-10.152 4.91-16.905 13.327-19.519 17.028-5.458 7.725-13.32 30.168-7.25 33.559 5.493 3.067 12.369-20.275 12.369-20.275s-10.937 22.644-3.643 25.128c7.294 2.484 13.738-25.078 13.738-25.078s-10.721 23.523-2.794 24.891c5.998 1.029 13.234-23.602 13.234-23.602s-9.072 20.282-2.96 21.6c6.761 1.44 14.868-20.88 14.868-20.88 16.114.763 24.092-5.472 29.247-10.577 1.245-1.195-24.552-27.749-24.552-27.749z"/>
    <path fill="#263238" d="M140.738 253.63c-1.382 2.614-2.8 5.249-3.938 7.978-1.138 2.729-2.196 5.501-3.082 8.323-2.16 6.919-2.448 11.592-2.397 11.304 1.145-6.782 5.09-16.61 6.235-19.339 1.145-2.729 2.16-5.501 3.29-8.23.029-.064-.079-.1-.108-.036zM150.66 257.583c-1.62 3.413-3.348 6.739-4.817 10.231-1.469 3.492-2.563 6.891-3.765 10.426-.094.274.086.238.194 0 1.354-3.506 2.88-6.653 4.32-10.145 1.44-3.492 2.671-7.041 4.19-10.469-.014-.064-.093-.093-.122-.043zM159.79 259.441c-2.744 5.09-4.544 10.685-6.171 16.207-.086.274.144.202.238-.079 1.951-5.422 3.441-9.691 6.113-16.035.043-.093-.13-.201-.18-.093z"/>
    <path fill="#FFC727" d="M171.432 225.442l31.32 34.884s31.68-7.272 36.346-15.393c3.074-5.35-20.801-26.935-38.808-24.408l-28.858 4.917z"/>
    <path fill="#fff" d="M199.246 247.208a9.54 9.54 0 01-.792 2.556 9.208 9.208 0 01-1.44 2.275c.142-.887.409-1.75.792-2.563a9.245 9.245 0 011.44-2.268zm21.794-1.951a9.504 9.504 0 00-.792 2.556 9.305 9.305 0 001.44-2.268c.383-.813.65-1.676.792-2.563a9.526 9.526 0 00-1.44 2.275zm-15.552-7.337a9.33 9.33 0 00-2.563-.792 9.305 9.305 0 002.268 1.44c.813.383 1.676.65 2.563.792a9.305 9.305 0 00-2.268-1.44zm15.509-9.605a9.235 9.235 0 001.245 2.369 9.262 9.262 0 00-.597-2.606 9.36 9.36 0 00-1.246-2.376c.071.898.272 1.78.598 2.62v-.007zm-31.752 7.553a9.363 9.363 0 001.245 2.369 10.364 10.364 0 00-1.843-4.983c.072.898.274 1.781.598 2.621v-.007zm-12.845-8.266a9.204 9.204 0 002.369-1.245 9.277 9.277 0 00-2.607.597 9.474 9.474 0 00-2.368 1.246 9.264 9.264 0 002.606-.598zm26.64-2.88a9.204 9.204 0 002.369-1.245 9.386 9.386 0 00-2.614.597 9.97 9.97 0 00-2.369 1.246 9.286 9.286 0 002.614-.605v.007zm9.864 30.672a9.205 9.205 0 002.376-1.252 9.557 9.557 0 00-2.614.604 9.216 9.216 0 00-2.368 1.246 9.543 9.543 0 002.613-.605l-.007.007zm23.551-17.395a11.13 11.13 0 00-1.879.519 9.628 9.628 0 00-2.376 1.252 9.557 9.557 0 002.614-.604 10.3 10.3 0 001.857-.893l-.216-.274z"/>
    <path fill="#263238" d="M221.796 226.227c-2.88-2.102-11.081-7.005-21.506-5.702-.087 0-.094.158 0 .158 7.862-.223 18.468 3.888 21.434 5.674.079.043.144-.079.072-.13zM211.32 254.48c-3.24-4.025-6.689-7.862-10.152-11.7-3.463-3.838-6.919-7.675-10.476-11.426-2.009-2.117-4.01-4.256-6.098-6.3-.051-.051-.159 0-.108.086 3.232 4.018 6.674 7.877 10.08 11.729 3.405 3.852 6.919 7.682 10.432 11.477a167.825 167.825 0 006.099 6.292c.122.108.317-.036.223-.158zM182.498 155.221a.035.035 0 00-.01-.026.04.04 0 00-.026-.01.04.04 0 00-.025.01.036.036 0 00-.011.026c.627 4.809 1.772 15.991-5.853 15.84-3.067-.065-5.983-1.779-8.431-3.485a42.731 42.731 0 01-6.876-6.077 63.63 63.63 0 01-6.567-7.963c-.079-.122-.259 0-.173.144 2.002 2.83 3.708 5.76 5.984 8.431a36.967 36.967 0 007.43 6.747c2.614 1.742 5.71 3.441 8.95 3.355 3.088-.079 5.191-2.16 5.896-5.04.929-3.809.569-8.172-.288-11.952z"/>
    <path fill="#fff" d="M180.821 150.526l-5.559 13.378-16.502-17.194-4.795 5.4s16.027 27.209 16.142 25.985l5.674-11.52 7.92 8.151-.418-20.24-2.462-3.96z"/>
    <path fill="#263238" d="M184.046 164.71c-.18-3.34-.273-6.71-.604-10.036a.116.116 0 00-.231 0c-.72 3.218.058 15.984 0 19.044l-.036-.036c-.331-.353-7.329-7.2-7.401-7.071-1.224 1.829-5.386 10.217-5.674 10.98-2.534-4.32-12.24-20.037-15.271-24.127a.115.115 0 00-.202.026.116.116 0 000 .082c2.232 4.565 15.12 25.726 15.3 25.668.137.108 5.307-10.231 5.933-12.182 1.181 1.483 8.237 9.172 8.266 8.676.165-3.674.139-7.353-.08-11.024z"/>
    <path fill="#455A64" d="M210.96 201.754s3.434 7.784-2.059 9.692c-5.494 1.908-7.632-6.322-7.632-6.322l9.691-3.37z"/>
    <path fill="#455A64" d="M181.721 148.95l1.224-8.23.381-2.722 2.016 1.88 6.07 5.702 19.634 56.491-9.698 3.37-19.62-56.491h-.007z"/>
    <path fill="#37474F" d="M182.938 140.706l.396-2.715 2.016 1.879-2.412.836zM200.646 206.04l11.316-3.934-.78-2.244-11.316 3.934.78 2.244zM199.787 203.552l11.316-3.934-.78-2.244-11.317 3.934.781 2.244zM210.326 197.362l-3.65 1.275-5.09-21.139 1.368-.389 7.372 20.253z"/>
    <path fill="#AD6359" d="M140.846 166.849c-22.766 28.447-43.43 69.386-39.24 84.189 1.534 5.415 11.319 14.4 26.014 9.54 16.56-5.486 37.188-18.979 56.412-33.314 4.075-3.038-29.354-28.404-33.768-25.2-2.052 1.483-7.654 6.71-8.503 6.307-1.275-.612 5.465-14.616 11.174-36.576 6.019-23.155-2.181-17.309-12.089-4.946z"/>
    <path fill="#AD6359" d="M198.18 164.329c3.089 3.765-6.854 10.591-6.854 10.591a8.998 8.998 0 015.925 1.505c2.967 2.217.785 7.841.785 7.841a11.122 11.122 0 016.005 2.577c2.621 2.412 1.231 8.395 1.231 8.395a9.728 9.728 0 013.845 5.595c1.274 6.113-5.609 12.708-9.936 16.949-4.327 4.24-20.621 12.218-23.501 14.04l-27.454-27.569s14.019-24.538 19.822-28.8c4.853-3.593 25.416-16.891 30.132-11.124z"/>
    <path fill="#263238" d="M191.16 174.877c-6.113 2.57-11.599 6.595-16.848 10.541a.116.116 0 00-.006.146c.016.021.04.036.066.042a.12.12 0 00.077-.008c5.177-3.982 11.52-6.682 16.869-10.448a.155.155 0 00.049-.211.16.16 0 00-.091-.072.156.156 0 00-.116.01zM197.59 183.992a17.289 17.289 0 00-3.665 2.642 113.947 113.947 0 00-3.6 3.14 184.962 184.962 0 00-7.027 6.573c-.101.101 0 .281.136.18 2.4-2.121 4.832-4.195 7.294-6.221a239.885 239.885 0 013.744-3.002 20.398 20.398 0 003.42-2.966.231.231 0 00.022-.324.231.231 0 00-.324-.022zM205.2 195.325c-1.21.497-2.232 1.685-3.175 2.563-1.073.994-2.16 1.98-3.233 2.959-2.16 1.966-4.32 3.931-6.559 5.818-.108.093 0 .273.137.18 2.282-1.908 4.579-3.78 6.84-5.71 1.108-.96 2.215-1.92 3.319-2.88.929-.813 2.196-1.728 2.772-2.88a.074.074 0 00-.016-.027.075.075 0 00-.054-.027.065.065 0 00-.031.004zM175.442 233.535a35.446 35.446 0 014.083-3.427 34.695 34.695 0 014.507-2.844 34.086 34.086 0 01-4.082 3.427 34.706 34.706 0 01-4.508 2.844z"/>
    <path fill="#FFC727" d="M142.697 206.744s6.199-18.144 10.454-32.868c4.255-14.724 5.602-28.404-10.08-11.779-15.681 16.625-43.711 65.621-43.279 84.917.115 5.608 6.134 16.416 21.665 16.056 15.53-.36 57.823-26 57.823-26l-31.37-34.135-5.213 3.809z"/>
    <path fill="#fff" d="M149.954 205.196c-.217.368-.47.712-.756 1.03.069-.492.19-.975.36-1.44l.396.41zm-28.857 11.124a9.504 9.504 0 00-.792 2.556 9.305 9.305 0 001.44-2.268 9.598 9.598 0 00.792-2.563 9.526 9.526 0 00-1.44 2.275zm21.24 22.709a9.274 9.274 0 00-.792 2.556 9.324 9.324 0 001.44-2.268c.38-.814.646-1.677.792-2.563a9.455 9.455 0 00-1.44 2.304v-.029zm-39.924 3.254a9.515 9.515 0 00-.792 2.556 9.305 9.305 0 001.44-2.268 9.623 9.623 0 00.792-2.556 9.532 9.532 0 00-1.44 2.297v-.029zm60.415-5.673a9.551 9.551 0 00-.792 2.563 9.324 9.324 0 001.44-2.268c.383-.813.65-1.676.792-2.563a9.527 9.527 0 00-1.44 2.296v-.028zm-27.094-46.93a9.387 9.387 0 00-.792 2.556 9.473 9.473 0 001.44-2.268 9.24 9.24 0 00.792-2.556 9.504 9.504 0 00-1.44 2.268zm-4.845-11.83a8.122 8.122 0 001.958.548 7.993 7.993 0 00-1.591-1.08l-.367.532zm-21.211 37.188c-.101.209-.202.418-.296.634a9.85 9.85 0 002.564.792 9.48 9.48 0 00-2.268-1.447v.021zm12.96 25.661a9.363 9.363 0 00-2.556-.792 9.275 9.275 0 002.268 1.44c.811.38 1.671.647 2.556.792a9.29 9.29 0 00-2.24-1.461l-.028.021zm19.994-23.169a9.353 9.353 0 00-2.556-.792 9.305 9.305 0 002.268 1.44c.81.385 1.671.654 2.556.799a9.315 9.315 0 00-2.239-1.469l-.029.022zm-30.96 34.725a9.207 9.207 0 001.246 2.369 9.298 9.298 0 00-.598-2.606 9.329 9.329 0 00-1.246-2.376c.083.889.294 1.762.627 2.592l-.029.021zm23.76-2.491a9.453 9.453 0 001.253 2.369 9.536 9.536 0 00-.598-2.607 9.65 9.65 0 00-1.253-2.376c.096.891.317 1.763.656 2.592l-.058.022zm-4.392-20.801a9.329 9.329 0 001.246 2.376 9.276 9.276 0 00-.598-2.613 9.453 9.453 0 00-1.253-2.369c.079.893.282 1.77.605 2.606zm-9.943-28.872a9.235 9.235 0 001.245 2.369 10.357 10.357 0 00-1.843-4.982c.07.895.268 1.775.591 2.613h.007zm31.478-39.701a9.453 9.453 0 001.253 2.369 10.476 10.476 0 00-1.85-4.975c.073.892.272 1.77.59 2.606h.007zm-7.517 13.004a9.238 9.238 0 002.369-1.246 9.23 9.23 0 00-2.606.598 9.605 9.605 0 00-2.376 1.245 9.262 9.262 0 002.606-.597h.007zm8.036 75.6a9.377 9.377 0 002.376-1.246 9.283 9.283 0 00-2.614.598c-.845.3-1.642.72-2.369 1.245a9.266 9.266 0 002.599-.569l.008-.028zm-40.947-18.274a9.207 9.207 0 002.369-1.246 9.36 9.36 0 00-2.614.598 9.615 9.615 0 00-2.368 1.253 9.543 9.543 0 002.613-.605zm13.212 26.705a9.366 9.366 0 002.369-1.246 9.283 9.283 0 00-2.614.598 9.581 9.581 0 00-2.368 1.253 9.612 9.612 0 002.613-.591v-.014zm8.431-52.481a9.197 9.197 0 002.369-1.253 10.532 10.532 0 00-4.982 1.851 9.527 9.527 0 002.613-.584v-.014zm18.67 23.616a9.207 9.207 0 002.369-1.246 9.352 9.352 0 00-2.614.598 9.639 9.639 0 00-2.369 1.253 9.624 9.624 0 002.614-.605z"/>
    <path fill="#263238" d="M169.574 239.662c-3.24-4.017-6.688-7.862-10.152-11.692-3.463-3.831-6.919-7.683-10.476-11.434-2.016-2.117-4.01-4.248-6.098-6.293-.05-.057-.158 0-.108.087 3.233 4.01 6.674 7.876 10.08 11.721a674.283 674.283 0 0010.433 11.477 173.54 173.54 0 006.098 6.3c.123.101.317-.043.223-.166zM151.999 184.539c-.612.9-1.166 1.836-1.685 2.787.173-.49.353-.98.519-1.476.72-1.995 1.339-4.004 2.009-6.012.043-.123-.173-.209-.224-.087-.72 1.735-1.44 3.456-2.124 5.199-.684 1.742-1.317 3.456-1.98 5.184-1.332 3.492-2.656 6.976-3.888 10.504-.72 1.995-1.339 3.996-1.922 6.034 0 .079.108.137.144.058 1.548-3.384 2.88-6.862 4.198-10.354.835-2.285 1.665-4.572 2.491-6.862a83.631 83.631 0 002.563-4.917.057.057 0 00-.022-.079.056.056 0 00-.044-.006.06.06 0 00-.035.027z"/>
    <path fill="#263238" d="M148.363 203.554s-.489-.388-.511-.41c-1.548 1.354-3.226 2.534-4.824 3.809-.85.684-7.157 5.688-9.317 7.509-5.119 4.32-10.08 8.806-14.99 13.4a313.527 313.527 0 00-7.2 7.012c-2.362 2.369-4.774 4.774-7.042 7.28a.058.058 0 01-.036.012.06.06 0 01-.036-.014.053.053 0 01-.019-.033.053.053 0 01.005-.037c2.462-2.88 4.917-5.825 7.488-8.64 4.542-4.985 9.372-9.7 14.465-14.12a217.078 217.078 0 017.797-6.429c1.743-1.375 7.531-5.839 8.359-6.48 1.707-1.289 3.42-2.679 5.148-3.823.065-.044.785.856.807.871.021.014-.058.158-.094.093z"/>
  </g>
</svg>
