<svg xmlns="http://www.w3.org/2000/svg" width="227" height="165" fill="none" viewBox="0 0 227 165">
  <path fill="#FF725E" d="M82.82 123.274l-5.795 40.761-5.744-40.769h-.092l-5.723-40.917a88.482 88.482 0 0123.483-.65l-5.958 41.579-.171-.004zM76.933 164.375l-58.37-68.103c6-5.002 17.236-3.8 24.42-7.09l16.927 37.414-.092.042 17.115 37.737z"/>
  <path fill="#FF725E" d="M76.548 164.388h.18L-29.936 127.18a88.395 88.395 0 0110.944-21.34l95.74 58.548h.143l-.058-.071.104.071-.037-.227.075.168v.059l.05.034v-.034h.034v-.059l.067-.143-.03.185.084-.054-.042.05h.138l71.383-43.772c5.024 6.762 21.825 7.732 24.773 15.783l-56.7 16.439-39.397 11.575h.155l-.381.109h-.025l-.03.026h-.046.026l-.16.067.13-.084h.021v-.038l-.18-.055.15.097-.447-.126z"/>
  <path fill="#FF725E" d="M104.159 133.056L77.117 164.35l17.166-37.691 17.877-39.244c7.607 3.024 16.328 4.695 22.746 9.6l-30.743 36.045-.004-.004zM76.966 164.594v-.004l.009-.005-.009.009zM77.063 164.51l.008.013.013-.009-.004.03-.005-.005.005.005-.03-.009.013-.008-.009-.013-.008.004.004-.008-.004-.009h.042l-.025.009zM77.264 164.598l-.168-.05-.004-.038.009-.009.163.097zM76.958 164.54v-.018l.009.009-.01.009zM77.063 164.661l-.042.311-.042-.303.046-.1.038.092zM76.975 164.535h.004l-.008.004.004-.004z"/>
  <g opacity=".9">
    <path fill="#FFAA64" d="M82.82 123.274l-5.795 40.761-5.744-40.769h-.092l-5.723-40.917a88.482 88.482 0 0123.483-.65l-5.958 41.579-.171-.004zM76.933 164.375l-58.37-68.103c6-5.002 17.236-3.8 24.42-7.09l16.927 37.414-.092.042 17.115 37.737z" opacity=".9"/>
    <path fill="#FFAA64" d="M76.548 164.388h.18L-29.936 127.18a88.395 88.395 0 0110.944-21.34l95.74 58.548h.143l-.058-.071.104.071-.037-.227.075.168v.059l.05.034v-.034h.034v-.059l.067-.143-.03.185.084-.054-.042.05h.138l71.383-43.772c5.024 6.762 21.825 7.732 24.773 15.783l-56.7 16.439-39.397 11.575h.155l-.381.109h-.025l-.03.026h-.046.026l-.16.067.13-.084h.021v-.038l-.18-.055.15.097-.447-.126z" opacity=".9"/>
    <path fill="#FFAA64" d="M104.159 133.056L77.117 164.35l17.166-37.691 17.877-39.244c7.607 3.024 16.328 4.695 22.746 9.6l-30.743 36.045-.004-.004zM76.966 164.594v-.004l.009-.005-.009.009zM77.063 164.51l.008.013.013-.009-.004.03-.005-.005.005.005-.03-.009.013-.008-.009-.013-.008.004.004-.008-.004-.009h.042l-.025.009zM77.264 164.598l-.168-.05-.004-.038.009-.009.163.097zM76.958 164.54v-.018l.009.009-.01.009zM77.063 164.661l-.042.311-.042-.303.046-.1.038.092zM76.975 164.535h.004l-.008.004.004-.004z" opacity=".9"/>
  </g>
  <path fill="#FF725E" d="M97.603 164.031c-.247-7.871-4.894-16.313-11.782-20.093a22.615 22.615 0 00-22.503.425 22.704 22.704 0 00-8.13 8.361 22.804 22.804 0 00-2.923 11.307"/>
  <g>
    <path fill="#263238" d="M31.797 27.72a11.58 11.58 0 00-2.68-7.421 11.59 11.59 0 012.963 3.752 11.626 11.626 0 01-2.174 13.368A11.526 11.526 0 0116.58 39.6a11.566 11.566 0 01-3.74-2.97 11.528 11.528 0 0012.301 1.59 11.572 11.572 0 004.85-4.278 11.623 11.623 0 001.806-6.221z"/>
  </g>
  <g>
    <path fill="#FF725E" d="M152.737 29.761l-.18.328a.735.735 0 01-.289.29l-.327.18.327.177a.735.735 0 01.289.29l.18.327.176-.328a.735.735 0 01.289-.29l.326-.176-.326-.18a.735.735 0 01-.289-.29l-.176-.328z"/>
    <path fill="#455A64" d="M130.506 110.989l-.176.328a.74.74 0 01-.289.29l-.327.18.327.177a.73.73 0 01.289.289l.176.328.18-.328a.73.73 0 01.289-.289l.326-.177-.326-.18a.74.74 0 01-.289-.29l-.18-.328zM165.23 87.658l-.18.328a.735.735 0 01-.289.29l-.327.18.327.177a.735.735 0 01.289.29l.18.327.176-.328a.735.735 0 01.289-.29l.326-.176-.326-.18a.735.735 0 01-.289-.29l-.176-.328zM199.192 70.203l-.176.328a.716.716 0 01-.293.29l-.322.18.322.176a.716.716 0 01.293.29l.176.328.176-.328a.75.75 0 01.293-.29l.322-.176-.322-.18a.75.75 0 01-.293-.29l-.176-.328zM19.873 73.311l-.18.323a.722.722 0 01-.289.294l-.322.177.322.176c.123.068.223.17.289.294l.18.324.176-.324a.71.71 0 01.293-.294l.322-.176-.322-.177a.709.709 0 01-.293-.294l-.176-.323z"/>
    <path fill="#FF725E" d="M35.904 65.306l-.18.323a.739.739 0 01-.29.29l-.326.18.327.177c.123.068.223.17.289.294l.18.323.176-.323a.722.722 0 01.288-.294l.327-.176-.327-.181a.739.739 0 01-.288-.29l-.176-.323zM169.14 50.942l-.444.815a1.81 1.81 0 01-.728.743l-.812.45.812.428c.309.167.562.42.728.73l.444.815.448-.814c.166-.31.418-.563.725-.731l.812-.458-.812-.42a1.832 1.832 0 01-.725-.727l-.448-.831zM.016 61.937l-.444.815a1.8 1.8 0 01-.729.731l-.812.445.796.45c.307.166.56.418.728.726l.46.836.444-.84a1.84 1.84 0 01.729-.727L2 63.924l-.812-.445a1.824 1.824 0 01-.729-.731l-.443-.81zM104.841 52.92l-.443.815a1.846 1.846 0 01-.725.73l-.816.446.816.445c.307.168.559.422.725.73l.443.816.448-.815c.166-.309.418-.563.725-.731l.837-.445-.837-.445a1.846 1.846 0 01-.725-.731l-.448-.815z"/>
    <path fill="#263238" d="M144.104 64.189l-.603 1.108c-.227.42-.57.764-.988.992l-1.105.604 1.105.61c.417.226.761.569.988.986l.603 1.11.607-1.11c.227-.416.568-.759.984-.987l1.105-.609-1.105-.604a2.485 2.485 0 01-.984-.992l-.607-1.108z"/>
    <path fill="#FF725E" d="M84.838 31.24l-.373.68a1.498 1.498 0 01-.603.605l-.678.37.678.373c.255.139.465.349.603.605l.373.68.368-.68c.138-.256.348-.466.603-.605l.678-.374-.678-.37a1.498 1.498 0 01-.603-.604l-.368-.68zM193.36 34.553l-.762 1.395a3.104 3.104 0 01-1.256 1.26l-1.39.764 1.39.76c.532.289.969.727 1.256 1.26l.762 1.395.758-1.395c.289-.532.725-.97 1.256-1.26l1.39-.76-1.39-.764a3.14 3.14 0 01-1.256-1.26l-.758-1.395zM69.749 46.418l-.762 1.395a3.124 3.124 0 01-1.256 1.26l-1.386.76 1.386.764c.533.288.97.726 1.256 1.26l.762 1.395.758-1.395a3.111 3.111 0 011.256-1.26l1.39-.764-1.39-.76a3.149 3.149 0 01-1.256-1.26l-.758-1.395z"/>
  </g>
  <g>
    <path fill="#FF725E" d="M167.051 110.137c-.289-2.1 2.654-3.81 4.865-3.99 1.051-.084 2.148.075 3.144-.273 2.165-.756 3.027-3.558 5.137-4.452 1.579-.668 3.396-.072 4.924.697 1.528.768 3.043 1.747 4.752 1.856 1.486.097 3.098-.458 4.4.269.971.546 1.478 1.68 2.369 2.327.892.647 2.014.781 3.099.84 1.084.059 2.206.071 3.194.525.988.453 1.804 1.499 1.599 2.57l-37.483-.369z"/>
    <path fill="#fff" d="M167.051 110.137c-.289-2.1 2.654-3.81 4.865-3.99 1.051-.084 2.148.075 3.144-.273 2.165-.756 3.027-3.558 5.137-4.452 1.579-.668 3.396-.072 4.924.697 1.528.768 3.043 1.747 4.752 1.856 1.486.097 3.098-.458 4.4.269.971.546 1.478 1.68 2.369 2.327.892.647 2.014.781 3.099.84 1.084.059 2.206.071 3.194.525.988.453 1.804 1.499 1.599 2.57l-37.483-.369z" opacity=".8"/>
    <path fill="#FF725E" d="M101.459 144.316c-.838-6.039 7.665-11.008 14.046-11.525 3.044-.243 6.209.223 9.089-.785 6.251-2.184 8.746-10.282 14.842-12.86 4.559-1.932 9.805-.215 14.235 2.016 4.429 2.23 8.792 5.04 13.723 5.355 4.292.277 8.956-1.319 12.715.785 2.797 1.567 4.262 4.805 6.846 6.72 2.583 1.915 5.815 2.264 8.946 2.436 3.132.172 6.377.202 9.211 1.512 2.834 1.31 5.212 4.334 4.605 7.426l-108.258-1.08z"/>
    <path fill="#fff" d="M101.459 144.316c-.838-6.039 7.665-11.008 14.046-11.525 3.044-.243 6.209.223 9.089-.785 6.251-2.184 8.746-10.282 14.842-12.86 4.559-1.932 9.805-.215 14.235 2.016 4.429 2.23 8.792 5.04 13.723 5.355 4.292.277 8.956-1.319 12.715.785 2.797 1.567 4.262 4.805 6.846 6.72 2.583 1.915 5.815 2.264 8.946 2.436 3.132.172 6.377.202 9.211 1.512 2.834 1.31 5.212 4.334 4.605 7.426l-108.258-1.08z" opacity=".6"/>
    <path fill="#FF725E" d="M117.996 144.808c.061.005.123.005.184 0h.532l2.047.021 7.536.046c6.364.033 15.147.092 24.852.201 9.705.11 18.497.143 24.856.139l7.536-.025 2.048-.021h.536c.059.005.12.005.18 0a.902.902 0 00-.18 0h-.536l-2.048-.021-7.536-.046c-6.359-.034-15.147-.093-24.852-.202-9.704-.109-18.492-.147-24.856-.139l-7.536.026h-2.579l-.184.021z"/>
  </g>
</svg>
